<svg width="24" height="24" viewBox="0 0 24 24" fill="none" xmlns="http://www.w3.org/2000/svg">
<path fill-rule="evenodd" clip-rule="evenodd" d="M11 4C11 3.449 11.448 3 12 3C12.552 3 13 3.449 13 4C13 4.551 12.552 5 12 5C11.448 5 11 4.551 11 4ZM10 4C10 4.93041 10.6382 5.71424 11.5 5.93676V8.03108C10.7705 8.12239 10.1016 8.41083 9.54824 8.84124L7.72257 7.01557C7.89879 6.71775 8 6.37049 8 6C8 4.897 7.103 4 6 4C4.897 4 4 4.897 4 6C4 7.103 4.897 8 6 8C6.37049 8 6.71775 7.89879 7.01557 7.72257L8.84124 9.54824C8.41083 10.1016 8.12239 10.7705 8.03108 11.5H5.93676C5.71424 10.6382 4.93041 10 4 10C2.897 10 2 10.897 2 12C2 13.103 2.897 14 4 14C4.93041 14 5.71424 13.3618 5.93676 12.5H8.03108C8.12239 13.2295 8.41083 13.8984 8.84124 14.4518L7.01557 16.2774C6.71775 16.1012 6.37049 16 6 16C4.897 16 4 16.897 4 18C4 19.103 4.897 20 6 20C7.103 20 8 19.103 8 18C8 17.6295 7.89879 17.2823 7.72257 16.9844L9.54824 15.1588C10.1016 15.5892 10.7705 15.8776 11.5 15.9689V18.0632C10.6382 18.2858 10 19.0696 10 20C10 21.103 10.897 22 12 22C13.103 22 14 21.103 14 20C14 19.0696 13.3618 18.2858 12.5 18.0632V15.9689C13.2295 15.8776 13.8984 15.5892 14.4518 15.1588L16.2774 16.9844C16.1012 17.2823 16 17.6295 16 18C16 19.103 16.897 20 18 20C19.103 20 20 19.103 20 18C20 16.897 19.103 16 18 16C17.6295 16 17.2823 16.1012 16.9844 16.2774L15.1588 14.4518C15.5892 13.8984 15.8776 13.2295 15.9689 12.5H18.0632C18.2858 13.3618 19.0696 14 20 14C21.103 14 22 13.103 22 12C22 10.897 21.103 10 20 10C19.0696 10 18.2858 10.6382 18.0632 11.5H15.9689C15.8776 10.7705 15.5892 10.1016 15.1588 9.54824L16.9844 7.72257C17.2823 7.89879 17.6295 8 18 8C19.103 8 20 7.103 20 6C20 4.897 19.103 4 18 4C16.897 4 16 4.897 16 6C16 6.37049 16.1012 6.71775 16.2774 7.01557L14.4518 8.84124C13.8984 8.41083 13.2295 8.12239 12.5 8.03108V5.93676C13.3618 5.71424 14 4.93041 14 4C14 2.897 13.103 2 12 2C10.897 2 10 2.897 10 4ZM6 5C5.448 5 5 5.448 5 6C5 6.552 5.448 7 6 7C6.552 7 7 6.552 7 6C7 5.448 6.552 5 6 5ZM18 17C17.448 17 17 17.448 17 18C17 18.552 17.448 19 18 19C18.552 19 19 18.552 19 18C19 17.448 18.552 17 18 17ZM5 18C5 17.448 5.448 17 6 17C6.552 17 7 17.448 7 18C7 18.552 6.552 19 6 19C5.448 19 5 18.552 5 18ZM18 5C17.448 5 17 5.448 17 6C17 6.552 17.448 7 18 7C18.552 7 19 6.552 19 6C19 5.448 18.552 5 18 5ZM12 19C11.448 19 11 19.448 11 20C11 20.552 11.448 21 12 21C12.552 21 13 20.552 13 20C13 19.448 12.552 19 12 19ZM19 12C19 11.448 19.448 11 20 11C20.552 11 21 11.448 21 12C21 12.552 20.552 13 20 13C19.448 13 19 12.552 19 12ZM4 11C3.448 11 3 11.448 3 12C3 12.552 3.448 13 4 13C4.552 13 5 12.552 5 12C5 11.448 4.552 11 4 11ZM9 12C9 10.346 10.346 9 12 9C13.654 9 15 10.346 15 12C15 13.654 13.654 15 12 15C10.346 15 9 13.654 9 12Z" fill="#2C2A29"/>
</svg>
