<svg width="24" height="24" viewBox="0 0 24 24" fill="none" xmlns="http://www.w3.org/2000/svg">
<path fill-rule="evenodd" clip-rule="evenodd" d="M14 15.7319V16.0019H10V15.7219C10 14.1425 9.44015 13.5561 8.51486 12.5869L8.512 12.5839L8.371 12.4359C7.486 11.5139 7 10.2939 7 9.0019C7 7.4859 7.673 6.0689 8.846 5.1149C10.019 4.1609 11.562 3.7969 13.078 4.1119C15.003 4.5089 16.543 6.0849 16.908 8.0329C17.191 9.5659 16.78 11.1129 15.783 12.2739C15.6685 12.4055 15.5584 12.5272 15.4539 12.6426L15.4539 12.6427L15.348 12.7599L15.3478 12.7601C14.5649 13.618 14 14.237 14 15.7319ZM9 17.0019H15V15.7319C15 14.625 15.3629 14.227 16.0857 13.4342L16.086 13.4339L16.1242 13.392L16.1243 13.3918C16.2542 13.2491 16.3925 13.0972 16.539 12.9279C17.737 11.5349 18.23 9.6839 17.892 7.8499C17.451 5.5069 15.599 3.6109 13.281 3.1319C11.471 2.7549 9.622 3.1949 8.215 4.3389C6.808 5.4839 6 7.1839 6 9.0019C6 10.5529 6.586 12.0189 7.647 13.1269L7.789 13.2739L7.79064 13.2756C8.67041 14.1973 9 14.5426 9 15.7219V17.0019ZM8 9.0019H9C9 7.3479 10.346 6.0019 12 6.0019V5.0019C9.794 5.0019 8 6.7959 8 9.0019ZM15 19.0019V18.0019H9V19.0019H15ZM15 20.0019V21.0019H9V20.0019H15Z" fill="#2C2A29"/>
</svg>
