<svg width="24" height="24" viewBox="0 0 24 24" fill="none" xmlns="http://www.w3.org/2000/svg">
<path fill-rule="evenodd" clip-rule="evenodd" d="M12 2C6.47715 2 2 6.47715 2 12C2 17.5228 6.47715 22 12 22C17.5228 22 22 17.5228 22 12C22 6.47715 17.5228 2 12 2ZM12 2.95238C16.9969 2.95238 21.0476 7.00314 21.0476 12C21.0476 16.9969 16.9969 21.0476 12 21.0476C7.00314 21.0476 2.95238 16.9969 2.95238 12C2.95238 7.00314 7.00314 2.95238 12 2.95238ZM9.64 8.1C9.64 6.9402 10.5802 6 11.74 6C12.8998 6 13.84 6.9402 13.84 8.1C13.84 9.2598 12.8998 10.2 11.74 10.2C10.5802 10.2 9.64 9.2598 9.64 8.1ZM12.84 8.1C12.84 7.49249 12.3475 7 11.74 7C11.1325 7 10.64 7.49249 10.64 8.1C10.64 8.70751 11.1325 9.2 11.74 9.2C12.3475 9.2 12.84 8.70751 12.84 8.1ZM9 13.9326V11H12.4372C13.0668 11 13.5772 11.5104 13.5772 12.14L13.577 15.584L14.5939 15.5842V18.5442H9V15.5842L10.003 15.584V13.932L9 13.9326ZM9.999 12V12.932L11.0031 12.9326V16.5842L9.999 16.584V17.544H13.593V16.584L12.5772 16.5842V12.14C12.5772 12.0627 12.5146 12 12.4372 12H9.999Z" fill="#2C2A29"/>
</svg>
