<svg width="24" height="24" viewBox="0 0 24 24" fill="none" xmlns="http://www.w3.org/2000/svg">
<path fill-rule="evenodd" clip-rule="evenodd" d="M11.5 3C7.916 3 5 5.916 5 9.5C5 13.084 7.916 16 11.5 16C15.084 16 18 13.084 18 9.5C18 5.916 15.084 3 11.5 3ZM11.5 17C7.364 17 4 13.636 4 9.5C4 5.364 7.364 2 11.5 2C15.636 2 19 5.364 19 9.5C19 13.636 15.636 17 11.5 17ZM11 22H7V21H11V18.9872C8.65 18.8662 6.45862 17.8936 4.782 16.217L4.429 15.864L5.136 15.157L5.489 15.51C7.06379 17.0848 9.14626 17.9654 11.3678 17.999H11.6322C13.8537 17.9654 15.9362 17.0848 17.51 15.51C20.824 12.196 20.824 6.804 17.51 3.49L17.157 3.136L17.864 2.429L18.217 2.783C21.921 6.487 21.921 12.513 18.217 16.217C16.5413 17.8936 14.35 18.8662 12 18.9872V21H16V22H12H11Z" fill="#2C2A29"/>
</svg>
