<svg width="24" height="24" viewBox="0 0 24 24" fill="none" xmlns="http://www.w3.org/2000/svg">
<path fill-rule="evenodd" clip-rule="evenodd" d="M7 10V7C7 4.243 9.243 2 12 2C14.757 2 17 4.243 17 7V10H19V15C19 18.86 15.86 22 12 22C8.14 22 5 18.86 5 15V10H7ZM12 3C14.206 3 16 4.794 16 7V10H8V7C8 4.794 9.794 3 12 3ZM6 11V15C6 18.309 8.691 21 12 21C15.309 21 18 18.309 18 15V11H6ZM11 14C11 13.449 11.449 13 12 13C12.551 13 13 13.449 13 14C13 14.551 12.551 15 12 15C11.449 15 11 14.551 11 14ZM12.5 15.9368C13.3618 15.7142 14 14.9304 14 14C14 12.897 13.103 12 12 12C10.897 12 10 12.897 10 14C10 14.9304 10.6382 15.7142 11.5 15.9368V18H12.5V15.9368Z" fill="#2C2A29"/>
</svg>
