<?xml version="1.0" encoding="UTF-8"?>
<svg width="235px" height="40px" viewBox="0 0 235 40" version="1.1" xmlns="http://www.w3.org/2000/svg" xmlns:xlink="http://www.w3.org/1999/xlink">
    <title>Group</title>
    <g id="Symbols" stroke="none" stroke-width="1" fill="none" fill-rule="evenodd">
        <g id="logos/Banitsmo/primario/positivo" transform="translate(-71.000000, -33.000000)" fill="#2C2A29">
            <g id="Group" transform="translate(71.235482, 33.238500)">
                <path d="M6.5997178,12.9114 C6.8175178,13.7502 7.6674178,14.1828 8.5302178,13.8987 C15.6066178,11.7393 22.6998178,10.2618 30.0189178,9.1869 C30.8580178,9.0756 31.3170178,8.2155 31.0083178,7.3527 C30.3588178,5.535 30.0300178,4.6284 29.3658178,2.8206 C29.0838178,2.0532 28.3212178,1.5498 27.5406178,1.6338 C20.3880178,2.5083 13.4772178,3.7998 6.5517178,5.7891 C5.6496178,6.0699 5.0961178,7.0713 5.3232178,7.9599 C5.8293178,9.9375 6.0846178,10.9278 6.5997178,12.9114" id="Fill-1"></path>
                <path d="M35.2785178,13.9053 C35.0037178,13.0926 34.2585178,12.5496 33.5211178,12.6453 C22.3233178,14.0607 11.4195178,16.8057 1.0797178,21.3426 C0.325517797,21.6963 -0.126882203,22.6368 0.0315177967,23.4657 C0.436517797,25.5861 0.641117797,26.6475 1.0548178,28.7718 C1.2318178,29.6802 2.0874178,30.0981 2.9310178,29.6898 C13.4337178,24.9204 24.5328178,21.8838 35.9184178,20.073 C36.6423178,19.9554 37.0113178,19.1328 36.7344178,18.2856 C36.1605178,16.5294 35.8692178,15.6531 35.2785178,13.9053" id="Fill-2"></path>
                <path d="M35.2470178,25.746 C34.9695178,24.8787 34.1583178,24.3126 33.3873178,24.4701 C26.3958178,25.974 19.5612178,27.7869 12.7911178,30.0939 C11.9325178,30.4062 11.4489178,31.3044 11.6748178,32.1309 C12.2127178,34.0992 12.4836178,35.085 13.0284178,37.0599 C13.2843178,37.9869 14.3343178,38.4618 15.3015178,38.0964 C22.0695178,35.6934 28.9050178,33.5949 35.8902178,31.9122 C36.5604178,31.7508 36.8901178,30.972 36.6408178,30.168 C36.0909178,28.3953 35.8122178,27.5106 35.2470178,25.746" id="Fill-3"></path>
                <path d="M62.2422178,23.8038 C62.2422178,21.4191 60.7122178,20.4291 57.6972178,20.4291 L54.0972178,20.4291 L54.0972178,27.1788 L57.6522178,27.1788 C60.5772178,27.1788 62.2422178,26.0088 62.2422178,23.8038 Z M56.9772178,8.5947 C56.0325178,8.5947 55.0425178,8.6847 54.0972178,8.8197 L54.0972178,14.8044 L57.1575178,14.8044 C59.8572178,14.8044 61.1172178,13.6794 61.1172178,11.7444 C61.1172178,9.8994 59.8122178,8.5947 56.9772178,8.5947 Z M69.6216178,24.1188 C69.6216178,29.3838 64.3119178,32.8935 58.2822178,32.8935 L47.2125178,32.8935 L47.2125178,3.8247 C50.9025178,3.285 53.6925178,2.9247 56.9772178,2.9247 C63.0519178,2.9247 67.9119178,5.7597 67.9119178,10.7097 C67.9119178,13.5444 66.4269178,15.4344 63.7719178,16.4694 C67.8669178,17.6391 69.6216178,20.1141 69.6216178,24.1188 L69.6216178,24.1188 Z" id="Fill-4"></path>
                <path d="M85.7778178,27.1338 L85.7778178,23.2638 L84.4728178,23.2638 C81.4131178,23.2638 78.6231178,23.9388 78.6231178,26.0538 C78.6231178,27.6735 79.7031178,28.2588 81.9081178,28.2588 C83.6631178,28.2588 85.1028178,27.7188 85.7778178,27.1338 Z M92.3925178,18.7191 L92.3925178,30.5535 C89.9628178,32.3985 86.0478178,33.3885 80.7381178,33.3885 C76.0134178,33.3885 72.0984178,31.4535 72.0984178,27.1788 C72.0984178,20.7441 78.3531178,19.1691 85.7778178,18.9441 C85.6428178,16.1544 84.5178178,15.4344 82.0428178,15.4344 C80.7381178,15.4344 77.2731178,16.0194 76.8234178,16.0194 C75.7431178,16.0194 74.8884178,15.3444 74.1684178,13.3644 L73.6281178,11.7444 C76.4181178,10.7097 79.1631178,9.9897 82.1331178,9.9897 C88.6128178,9.9897 92.3925178,12.4194 92.3925178,18.7191 L92.3925178,18.7191 Z" id="Fill-5"></path>
                <path d="M117.171918,16.8741 L117.171918,32.8935 L110.422218,32.8935 L110.422218,19.2591 C110.422218,16.8741 108.847218,15.6594 106.102518,15.6594 C105.067818,15.6594 104.077818,15.7944 103.222518,16.0194 L103.222518,32.8935 L96.4281178,32.8935 L96.4728178,12.8694 C99.3081178,10.9794 103.897518,9.9444 107.632518,9.9444 C112.807518,9.9444 117.171918,12.5094 117.171918,16.8741" id="Fill-6"></path>
                <path d="M121.822518,10.5744 C122.767518,10.1694 123.937518,9.9444 125.242518,9.9444 C126.547218,9.9444 127.672218,10.1694 128.617218,10.5744 L128.617218,32.8935 L121.822518,32.8935 L121.822518,10.5744 Z M121.732518,3.4647 C121.732518,1.575 123.307518,6.39488462e-14 125.197218,6.39488462e-14 C127.132518,6.39488462e-14 128.707218,1.53 128.707218,3.4647 C128.707218,5.3097 127.132518,6.9297 125.197218,6.9297 C123.307518,6.9297 121.732518,5.3997 121.732518,3.4647 L121.732518,3.4647 Z" id="Fill-7"></path>
                <path d="M139.506918,28.1688 C141.216918,28.1688 142.791918,27.5388 142.791918,26.4138 C142.791918,25.2888 141.756918,24.7488 139.282218,24.0738 C135.232218,23.0388 133.117218,20.6091 133.117218,17.4594 C133.117218,12.3294 137.301918,9.7647 143.466918,9.7647 C145.671618,9.7647 148.236618,10.2597 149.271318,10.7097 C149.271318,12.4194 148.641618,14.7594 147.651618,16.0644 C146.166618,15.5244 144.726618,15.2094 143.511618,15.2094 C141.306918,15.2094 139.911918,15.7494 139.911918,16.9644 C139.911918,17.8641 141.036918,18.6294 143.241918,19.3941 C147.561618,20.8341 149.766618,22.3191 149.766618,25.7838 C149.766618,30.9135 145.896618,33.4335 139.596918,33.4335 C137.257218,33.4335 135.861918,33.2535 133.342218,32.8485 C133.072218,31.9035 132.937218,30.9588 132.937218,29.9688 C132.937218,28.7985 133.117218,27.8088 133.477218,26.9538 C135.952218,27.7638 137.932218,28.1688 139.506918,28.1688" id="Fill-8"></path>
                <path d="M166.776318,27.2688 C167.496318,28.3485 167.721318,30.1485 167.721318,32.7585 C166.866618,33.1185 164.841618,33.3885 162.861618,33.3885 C157.371618,33.3885 154.851918,31.8135 154.851918,26.5938 L154.851918,15.7494 L151.477218,15.7494 C151.477218,11.2944 156.966918,5.4447 161.601618,4.3647 L161.601618,10.3494 L168.261318,10.3494 C168.261318,11.9694 167.766618,14.5794 166.596318,15.7494 L161.601618,15.7494 L161.601618,24.9288 C161.601618,27.0888 162.141618,27.7188 164.166618,27.7188 C165.156618,27.7188 165.876618,27.5388 166.776318,27.2688" id="Fill-9"></path>
                <path d="M206.645418,16.8741 L206.645418,32.8935 L199.940718,32.8935 L199.940718,19.2591 C199.940718,16.8741 198.410718,15.6594 195.710718,15.6594 C194.451018,15.6594 193.236018,15.9294 192.245718,16.3344 C192.606018,17.3241 192.786018,18.4044 192.786018,19.5738 L192.786018,32.8935 L186.081318,32.8935 L186.081318,19.2591 C186.081318,16.8741 184.551318,15.6594 181.851318,15.6594 C180.816618,15.6594 179.826618,15.7944 178.971318,16.0194 L178.971318,32.8935 L172.176918,32.8935 L172.221618,12.8694 C174.921618,10.9794 179.151618,9.9444 182.706618,9.9444 C185.541318,9.9444 187.971018,10.8894 189.726018,12.4194 C192.020718,10.9344 195.216018,9.9444 197.915718,9.9444 C202.820718,9.9444 206.645418,12.5544 206.645418,16.8741" id="Fill-10"></path>
                <path d="M226.266018,21.5988 C226.266018,17.9094 224.466018,15.7494 221.316318,15.7494 C218.256318,15.7494 216.366618,17.9094 216.366618,21.5988 C216.366618,25.4688 218.211318,27.4938 221.316318,27.4938 C224.466018,27.4938 226.266018,25.4688 226.266018,21.5988 Z M209.571618,21.5988 C209.571618,14.3994 214.431618,9.8994 221.316318,9.8994 C228.470718,9.8994 233.060718,14.5794 233.060718,21.5988 C233.060718,28.8438 228.426018,33.3435 221.316318,33.3435 C214.161318,33.3435 209.571618,28.7088 209.571618,21.5988 L209.571618,21.5988 Z" id="Fill-11"></path>
            </g>
        </g>
    </g>
</svg>