<svg width="48" height="48" viewBox="0 0 48 48" fill="none" xmlns="http://www.w3.org/2000/svg">
<path fill-rule="evenodd" clip-rule="evenodd" d="M33.9805 14C32.8728 14 31.9805 14.8923 31.9805 16V17C31.9805 17.5523 31.5328 18 30.9805 18C30.4282 18 29.9805 17.5523 29.9805 17V16C29.9805 13.7877 31.7682 12 33.9805 12C36.1928 12 37.9805 13.7877 37.9805 16V30C37.9805 33.3999 36.7745 36.5264 34.7464 38.9429C34.3914 39.3659 33.7606 39.421 33.3376 39.066C32.9146 38.7109 32.8594 38.0802 33.2145 37.6571C34.9464 35.5936 35.9805 32.9201 35.9805 30V16C35.9805 14.8923 35.0882 14 33.9805 14Z" fill="#00C389"/>
<path fill-rule="evenodd" clip-rule="evenodd" d="M23.9805 10C23.9805 7.78772 25.7682 6 27.9805 6C30.1928 6 31.9805 7.78772 31.9805 10V25C31.9805 25.5523 31.5328 26 30.9805 26C30.4282 26 29.9805 25.5523 29.9805 25V10C29.9805 8.89228 29.0882 8 27.9805 8C26.8728 8 25.9805 8.89228 25.9805 10V17C25.9805 17.5523 25.5328 18 24.9805 18C24.4282 18 23.9805 17.5523 23.9805 17V10Z" fill="#FDDA24"/>
<path fill-rule="evenodd" clip-rule="evenodd" d="M21.9805 6C20.8728 6 19.9805 6.89228 19.9805 8V25C19.9805 25.5523 19.5328 26 18.9805 26C18.4282 26 17.9805 25.5523 17.9805 25V8C17.9805 5.78772 19.7682 4 21.9805 4C24.1928 4 25.9805 5.78772 25.9805 8V25C25.9805 25.5523 25.5328 26 24.9805 26C24.4282 26 23.9805 25.5523 23.9805 25V8C23.9805 6.89228 23.0882 6 21.9805 6Z" fill="#FF7F37"/>
<path fill-rule="evenodd" clip-rule="evenodd" d="M11.9805 10C11.9805 7.78772 13.7682 6 15.9805 6C18.1928 6 19.9805 7.78772 19.9805 10V25C19.9805 25.5523 19.5328 26 18.9805 26C18.4282 26 17.9805 25.5523 17.9805 25V10C17.9805 8.89228 17.0882 8 15.9805 8C14.8728 8 13.9805 8.89228 13.9805 10V17C13.9805 17.5523 13.5328 18 12.9805 18C12.4282 18 11.9805 17.5523 11.9805 17V10Z" fill="#F5B6CD"/>
<path fill-rule="evenodd" clip-rule="evenodd" d="M7.98047 17C7.98047 16.4477 8.42818 16 8.98047 16H9.98047C13.2928 16 15.9805 18.6877 15.9805 22V26.0549C20.4818 26.552 23.9805 30.3657 23.9805 35C23.9805 35.5523 23.5328 36 22.9805 36C22.4282 36 21.9805 35.5523 21.9805 35C21.9805 31.1323 18.8482 28 14.9805 28C14.4282 28 13.9805 27.5523 13.9805 27V22C13.9805 19.7923 12.1882 18 9.98047 18V30C9.98047 30.5523 9.53275 31 8.98047 31C8.42818 31 7.98047 30.5523 7.98047 30V17Z" fill="#00CCEA"/>
<path fill-rule="evenodd" clip-rule="evenodd" d="M8.98047 29C9.53275 29 9.98047 29.4477 9.98047 30C9.98047 36.6277 15.3528 42 21.9805 42H23.9805C27.6891 42 31.0124 40.3033 33.2118 37.6603C33.5651 37.2358 34.1956 37.1781 34.6201 37.5313C35.0446 37.8846 35.1024 38.5151 34.7491 38.9397C32.1885 42.0167 28.3119 44 23.9805 44H21.9805C14.2482 44 7.98047 37.7323 7.98047 30C7.98047 29.4477 8.42818 29 8.98047 29Z" fill="#9063CD"/>
</svg>
