<svg width="24" height="24" viewBox="0 0 24 24" fill="none" xmlns="http://www.w3.org/2000/svg">
<path fill-rule="evenodd" clip-rule="evenodd" d="M2 2H19V5H22V22H9.28358C7.02777 22 5.61337 20.9359 5.15487 18.8986C3.19734 18.52 2.11704 17.0862 2 14.6863V2ZM6.21429 18.9997C6.61091 20.2984 7.53695 20.943 9.07161 20.9964L9.28358 21H21V6H19V19H6.28358C6.26039 19 6.2373 18.9999 6.21429 18.9997ZM6.28358 18H18V3H3L2.9994 14.6618C3.10733 16.8653 4.08768 17.9257 6.06761 17.9962L6.28358 18ZM16.4887 5.5V4.5H4.5V5.5H16.4887ZM11.5 8.5H4.5V15.5H11.5V8.5ZM10.5 9.5V14.5H5.5V9.5H10.5ZM16.4887 6.5V7.5H4.5V6.5H16.4887ZM16 9.5V8.5H12.5V9.5H16ZM16 10.5V11.5H12.5V10.5H16ZM16 13.5V12.5H12.5V13.5H16Z" fill="#2C2A29"/>
</svg>
