<svg width="24" height="24" viewBox="0 0 24 24" fill="none" xmlns="http://www.w3.org/2000/svg">
<path fill-rule="evenodd" clip-rule="evenodd" d="M10.2322 10.2305C9.77982 10.6829 9.5 11.3079 9.5 11.9982C9.5 13.3789 10.6193 14.4982 12 14.4982C12.6904 14.4982 13.3154 14.2184 13.7678 13.766L13.0607 13.0589C12.7892 13.3303 12.4142 13.4982 12 13.4982C11.1716 13.4982 10.5 12.8267 10.5 11.9982C10.5 11.584 10.6679 11.209 10.9393 10.9376L10.2322 10.2305Z" fill="#2C2A29"/>
<path fill-rule="evenodd" clip-rule="evenodd" d="M19.6465 20.3536L3.64648 4.35359L4.35359 3.64648L20.3536 19.6465L19.6465 20.3536Z" fill="#2C2A29"/>
<path fill-rule="evenodd" clip-rule="evenodd" d="M6.5455 6.45957C4.40287 7.70823 2.76678 9.67044 2 12C3.3354 16.0571 7.30754 19 12 19C14.0436 19 15.9505 18.4419 17.5625 17.4766L16.832 16.7461C15.4215 17.5415 13.7716 18 12 18C7.84409 18 4.35762 15.4768 3.06132 12C3.8194 9.96676 5.32651 8.25964 7.2785 7.19257L6.5455 6.45957ZM18.4818 15.5674C19.5784 14.59 20.4283 13.3689 20.9387 12C19.6424 8.52321 16.1559 6 12 6C11.0552 6 10.1449 6.13042 9.28717 6.37281L8.48929 5.57492C9.58683 5.20266 10.7686 5 12 5C16.6925 5 20.6646 7.94289 22 12C21.4567 13.6506 20.4769 15.1168 19.1898 16.2754L18.4818 15.5674Z" fill="#2C2A29"/>
</svg>
