<svg width="24" height="24" viewBox="0 0 24 24" fill="none" xmlns="http://www.w3.org/2000/svg">
<path fill-rule="evenodd" clip-rule="evenodd" d="M3 14.011L2.977 11H5.203L5.321 10.667C5.62 9.824 6.143 9.048 6.835 8.423L7 8.274V5H7.5C8.328 5 9 5.673 9 6.5V7H13.248C16.2493 7 18.773 9.26696 18.9858 12.0977V12.9087C18.8924 14.1947 18.3579 15.3924 17.449 16.33C16.404 17.407 15.001 18 13.5 18H10.5C8.547 18 6.725 16.946 5.743 15.25L5.598 15H3.99C3.444 15 3 14.557 3 14.011ZM19.9859 12.9498C19.8825 14.4813 19.2493 15.9102 18.166 17.026C17.8118 17.3911 17.4229 17.7091 17.0065 17.9771V19.977H16.0065V18.5024C15.6816 18.638 15.3453 18.7468 15.0005 18.8277V19.977H14.0005V18.9813C13.8349 18.9937 13.668 19 13.5 19H10.5C10.3326 19 10.166 18.9934 10.0005 18.9805V19.977H9.0005V18.8226C8.65998 18.741 8.3276 18.6321 8.0065 18.4977V19.977H7.0065V17.9736C6.22285 17.4723 5.54408 16.8029 5.03 16H3.99C2.893 16 2 15.107 2 14.011V10.977C2 10.438 2.439 10 2.977 10H4.507C4.845 9.197 5.355 8.458 6 7.835V4H7.5C8.707 4 9.718 4.86 9.951 6H13.248C16.7322 6 19.6683 8.62085 19.9745 11.9183C20.5624 11.7151 20.9858 11.156 20.9858 10.5V10H21.9858V10.5C21.9858 11.7078 21.1259 12.7176 19.9859 12.9498ZM14.0005 9H11.0005V8H14.0005V9ZM7.0005 10.5C7.0005 10.225 7.2255 10 7.5005 10C7.7755 10 8.0005 10.225 8.0005 10.5C8.0005 10.775 7.7755 11 7.5005 11C7.2255 11 7.0005 10.775 7.0005 10.5ZM6.0005 10.5C6.0005 11.327 6.6735 12 7.5005 12C8.3275 12 9.0005 11.327 9.0005 10.5C9.0005 9.673 8.3275 9 7.5005 9C6.6735 9 6.0005 9.673 6.0005 10.5Z" fill="#2C2A29"/>
</svg>
