<svg width="24" height="24" viewBox="0 0 24 24" fill="none" xmlns="http://www.w3.org/2000/svg">
<path fill-rule="evenodd" clip-rule="evenodd" d="M9 7C9 5.346 10.346 4 12 4C13.654 4 15 5.346 15 7V8.479C15 9.955 14.267 13.001 12 13.001C9.733 13.001 9 9.955 9 8.479V7ZM8 8.479C8 10.772 9.241 14.001 12 14.001C14.759 14.001 16 10.772 16 8.479V7C16 4.794 14.206 3 12 3C9.794 3 8 4.794 8 7V8.479ZM20 19.5V20H4V19.5C4 17.505 5.332 15.748 7.216 15.187C8.185 16.909 10.02 18 12 18C13.98 18 15.815 16.909 16.784 15.187C18.668 15.748 20 17.505 20 19.5ZM3 21H21V19.5C21 16.907 19.159 14.643 16.622 14.116L16.235 14.036L16.067 14.394C15.328 15.977 13.731 17 12 17C10.269 17 8.672 15.977 7.933 14.394L7.765 14.036L7.378 14.116C4.841 14.643 3 16.907 3 19.5V21Z" fill="#2C2A29"/>
</svg>
